# xmcd CD database file
#
# Track frame offsets:
#	150
#	532
#	15776
#	37481
#	53776
#	75380
#	94687
#	117643
#	133318
#	155360
#	175213
#	194276
#	224263
#	240387
#	259117
#	277933
#	302047
#
# Disc length: 4199 seconds
#
# Revision: 1
# Processed by: cddbd v1.5.2PL0 Copyright (c) Steve Scherf et al.
# Submitted via: CDex 1.51
#
DISCID=de106511
DTITLE=Åke Edwardson - Vänaste land
DYEAR=2006
DGENRE=Ljudbok
TTITLE0=06.01
TTITLE1=06.02
TTITLE2=06.03
TTITLE3=06.04
TTITLE4=06.05
TTITLE5=06.06
TTITLE6=06.07
TTITLE7=06.08
TTITLE8=06.09
TTITLE9=06.10
TTITLE10=06.11
TTITLE11=06.12
TTITLE12=06.13
TTITLE13=06.14
TTITLE14=06.15
TTITLE15=06.16
TTITLE16=06.17
EXTD=YEAR: 2006
EXTT0=
EXTT1=
EXTT2=
EXTT3=
EXTT4=
EXTT5=
EXTT6=
EXTT7=
EXTT8=
EXTT9=
EXTT10=
EXTT11=
EXTT12=
EXTT13=
EXTT14=
EXTT15=
EXTT16=
PLAYORDER=
